<svg version="1.1" id="Layer_1" xmlns="http://www.w3.org/2000/svg" xmlns:xlink="http://www.w3.org/1999/xlink" x="0px" y="0px"
	 width="100%" viewBox="0 0 360 720" enable-background="new 0 0 360 720" xml:space="preserve">
<path fill="#00B4B6" opacity="1.000000" stroke="none" 
	d="
M57.000000,721.000000 
	C38.004280,721.000000 19.508564,721.000000 1.006423,721.000000 
	C1.000000,720.837646 1.000000,720.675293 1.000000,720.512939 
	C1.000000,480.735107 1.000000,240.957306 1.000000,1.089743 
	C120.912338,1.089743 240.824753,1.089743 360.868591,1.089743 
	C360.868591,240.999954 360.868591,480.999969 360.868591,721.000000 
	C259.786377,721.000000 158.643188,721.000000 57.000000,721.000000 
M232.903046,254.210464 
	C230.522690,253.742050 228.075653,253.484772 225.776688,252.758652 
	C221.731354,251.480942 218.923111,252.712311 217.189590,256.460480 
	C214.942566,261.318970 215.945526,266.795380 219.806412,267.683014 
	C224.942535,268.863739 230.326920,269.320312 235.602814,269.307892 
	C237.071304,269.304443 238.684448,266.658600 239.936005,265.001953 
	C240.583267,264.145172 240.698029,262.815765 240.857925,261.672546 
	C241.881287,254.355927 238.285431,249.229660 230.546967,246.883118 
	C221.408997,244.112183 214.047256,246.548187 210.826752,253.596588 
	C208.326797,259.067993 207.799377,264.670441 211.945557,269.569885 
	C216.608459,275.079895 223.149277,275.557068 230.371017,276.232666 
	C228.688644,273.460022 228.688644,273.459991 222.577850,272.028534 
	C216.287292,270.554962 213.190216,267.453857 212.857895,262.295929 
	C212.485306,256.513245 214.908844,251.648956 219.137543,249.691956 
	C223.833740,247.518600 230.802124,249.035721 234.441269,253.708206 
	C234.200256,253.889297 233.959229,254.070404 232.903046,254.210464 
M240.238266,400.888580 
	C239.915085,402.033264 239.554443,403.168945 239.276382,404.324493 
	C238.672684,406.833435 237.042786,409.818573 237.871994,411.719391 
	C238.530289,413.228485 242.173859,413.654968 244.577576,414.113892 
	C246.523071,414.485321 248.595993,414.189240 251.389069,414.189240 
	C248.329483,421.752960 242.078430,413.761932 238.551193,418.866272 
	C241.914703,420.872223 245.222488,422.844910 249.457718,425.370758 
	C249.829651,425.164734 251.555725,424.721802 252.417465,423.609314 
	C253.662964,422.001404 254.475723,419.970612 255.108810,418.003052 
	C255.639816,416.352722 256.191803,414.393890 255.782944,412.818634 
	C254.769272,408.913208 251.529053,408.797455 248.167709,409.094116 
	C246.290726,409.259766 244.383224,409.079376 242.489471,409.054932 
	C242.581421,408.316833 242.597031,406.958618 242.777084,406.936462 
	C244.603439,406.711700 246.465530,406.793854 248.299652,406.610474 
	C249.908478,406.449615 251.494385,406.059479 253.090424,405.770630 
	C253.128250,405.365875 253.166077,404.961151 253.203903,404.556427 
	C250.106094,402.643005 247.008286,400.729553 243.302231,398.440430 
	C242.754196,398.742249 241.509659,399.427673 240.238266,400.888580 
M75.910408,475.525696 
	C77.471588,478.359253 79.032776,481.192780 79.937546,482.834961 
	C82.934456,481.794525 85.162758,481.293335 87.115822,480.267914 
	C89.158310,479.195496 92.020546,477.941803 92.545425,476.178284 
	C93.153191,474.136353 92.159393,471.062775 90.826920,469.161804 
	C89.610535,467.426422 86.793709,466.904205 85.095634,465.385162 
	C83.812233,464.237091 83.180511,462.360504 82.258743,460.808136 
	C84.153595,460.256683 86.256844,458.928009 87.886665,459.365021 
	C89.633797,459.833435 90.991447,461.909424 92.411644,463.387054 
	C93.337433,464.350342 94.071640,465.497772 94.891678,466.562683 
	C95.312828,466.340057 95.733978,466.117432 96.155128,465.894775 
	C95.914253,464.334198 95.970016,462.646393 95.367241,461.241028 
	C94.300873,458.754822 90.385353,457.403534 92.428207,453.627533 
	C92.485069,453.522461 91.278755,452.399261 90.609978,452.340851 
	C90.063042,452.293121 89.473564,453.185120 88.842316,453.557770 
	C87.476181,454.364349 85.995590,454.996277 84.699173,455.897278 
	C82.560074,457.383911 79.472359,458.671051 78.784134,460.715424 
	C78.221710,462.386139 80.185768,465.386566 81.753746,467.155731 
	C83.219833,468.809814 85.876373,469.361237 87.547066,470.899567 
	C88.529053,471.803833 89.324371,473.973724 88.892578,475.046692 
	C88.474113,476.086578 86.327972,477.090271 85.028152,476.988770 
	C81.580055,476.719543 78.589737,475.451447 77.941994,471.306671 
	C77.766678,470.184875 76.812248,469.184845 76.215431,468.128906 
	C75.654984,468.305664 75.094528,468.482422 74.534081,468.659180 
	C74.848633,470.752930 75.163177,472.846710 75.910408,475.525696 
z"/>
<path fill="#CCC3B1" opacity="1.000000" stroke="none" 
	d="
M235.178543,253.184296 
	C230.802124,249.035721 223.833740,247.518600 219.137543,249.691956 
	C214.908844,251.648956 212.485306,256.513245 212.857895,262.295929 
	C213.190216,267.453857 216.287292,270.554962 222.577850,272.028534 
	C228.688644,273.459991 228.688644,273.460022 230.371017,276.232666 
	C223.149277,275.557068 216.608459,275.079895 211.945557,269.569885 
	C207.799377,264.670441 208.326797,259.067993 210.826752,253.596588 
	C214.047256,246.548187 221.408997,244.112183 230.546967,246.883118 
	C238.285431,249.229660 241.881287,254.355927 240.857925,261.672546 
	C240.698029,262.815765 240.583267,264.145172 239.936005,265.001953 
	C238.684448,266.658600 237.071304,269.304443 235.602814,269.307892 
	C230.326920,269.320312 224.942535,268.863739 219.806412,267.683014 
	C215.945526,266.795380 214.942566,261.318970 217.189590,256.460480 
	C218.923111,252.712311 221.731354,251.480942 225.776688,252.758652 
	C228.075653,253.484772 230.522690,253.742050 233.365265,254.644409 
	C233.326874,258.760651 232.826294,262.442932 232.275024,266.497925 
	C237.919098,264.251984 238.813736,258.863556 235.178543,253.184296 
M226.090439,264.720581 
	C226.765778,263.466766 228.205185,262.016632 227.944839,261.003204 
	C227.509171,259.307556 225.988602,257.890656 224.924683,256.356445 
	C223.642136,257.568237 221.667633,258.568787 221.219879,260.035400 
	C220.263763,263.167236 221.705292,265.164825 226.090439,264.720581 
z"/>
<path fill="#CCC3B1" opacity="1.000000" stroke="none" 
	d="
M240.251694,400.500854 
	C241.509659,399.427673 242.754196,398.742249 243.302231,398.440430 
	C247.008286,400.729553 250.106094,402.643005 253.203903,404.556427 
	C253.166077,404.961151 253.128250,405.365875 253.090424,405.770630 
	C251.494385,406.059479 249.908478,406.449615 248.299652,406.610474 
	C246.465530,406.793854 244.603439,406.711700 242.777084,406.936462 
	C242.597031,406.958618 242.581421,408.316833 242.489471,409.054932 
	C244.383224,409.079376 246.290726,409.259766 248.167709,409.094116 
	C251.529053,408.797455 254.769272,408.913208 255.782944,412.818634 
	C256.191803,414.393890 255.639816,416.352722 255.108810,418.003052 
	C254.475723,419.970612 253.662964,422.001404 252.417465,423.609314 
	C251.555725,424.721802 249.829651,425.164734 249.457718,425.370758 
	C245.222488,422.844910 241.914703,420.872223 238.551193,418.866272 
	C242.078430,413.761932 248.329483,421.752960 251.389069,414.189240 
	C248.595993,414.189240 246.523071,414.485321 244.577576,414.113892 
	C242.173859,413.654968 238.530289,413.228485 237.871994,411.719391 
	C237.042786,409.818573 238.672684,406.833435 239.276382,404.324493 
	C239.554443,403.168945 239.915085,402.033264 240.251694,400.500854 
z"/>
<path fill="#CCC3B1" opacity="1.000000" stroke="none" 
	d="
M75.694069,475.233093 
	C75.163177,472.846710 74.848633,470.752930 74.534081,468.659180 
	C75.094528,468.482422 75.654984,468.305664 76.215431,468.128906 
	C76.812248,469.184845 77.766678,470.184875 77.941994,471.306671 
	C78.589737,475.451447 81.580055,476.719543 85.028152,476.988770 
	C86.327972,477.090271 88.474113,476.086578 88.892578,475.046692 
	C89.324371,473.973724 88.529053,471.803833 87.547066,470.899567 
	C85.876373,469.361237 83.219833,468.809814 81.753746,467.155731 
	C80.185768,465.386566 78.221710,462.386139 78.784134,460.715424 
	C79.472359,458.671051 82.560074,457.383911 84.699173,455.897278 
	C85.995590,454.996277 87.476181,454.364349 88.842316,453.557770 
	C89.473564,453.185120 90.063042,452.293121 90.609978,452.340851 
	C91.278755,452.399261 92.485069,453.522461 92.428207,453.627533 
	C90.385353,457.403534 94.300873,458.754822 95.367241,461.241028 
	C95.970016,462.646393 95.914253,464.334198 96.155128,465.894775 
	C95.733978,466.117432 95.312828,466.340057 94.891678,466.562683 
	C94.071640,465.497772 93.337433,464.350342 92.411644,463.387054 
	C90.991447,461.909424 89.633797,459.833435 87.886665,459.365021 
	C86.256844,458.928009 84.153595,460.256683 82.258743,460.808167 
	C83.180511,462.360504 83.812233,464.237091 85.095634,465.385162 
	C86.793709,466.904205 89.610535,467.426422 90.826920,469.161804 
	C92.159393,471.062775 93.153191,474.136353 92.545425,476.178284 
	C92.020546,477.941803 89.158310,479.195496 87.115822,480.267914 
	C85.162758,481.293335 82.934456,481.794525 79.937546,482.834961 
	C79.032776,481.192780 77.471588,478.359253 75.694069,475.233093 
z"/>
<path fill="#00B4B6" opacity="1.000000" stroke="none" 
	d="
M225.699829,264.827515 
	C221.705292,265.164825 220.263763,263.167236 221.219879,260.035400 
	C221.667633,258.568787 223.642136,257.568237 224.924683,256.356445 
	C225.988602,257.890656 227.509171,259.307556 227.944839,261.003204 
	C228.205185,262.016632 226.765778,263.466766 225.699829,264.827515 
z"/>
<path fill="#00B4B6" opacity="1.000000" stroke="none" 
	d="
M234.809906,253.446259 
	C238.813736,258.863556 237.919098,264.251984 232.275024,266.497925 
	C232.826294,262.442932 233.326874,258.760651 233.772827,254.664948 
	C233.959229,254.070404 234.200256,253.889297 234.809906,253.446259 
z"/>
</svg>